<svg width="32" height="30" fill="none" xmlns="http://www.w3.org/2000/svg"><path d="M28 0H4C1.79 0 0 1.79 0 4v15c0 2.21 1.79 4 4 4h3v6c0 .39.23.75.59.91.13.06.27.09.41.09.24 0 .47-.09.66-.25L16.38 23H28c2.21 0 4-1.79 4-4V4c0-2.21-1.79-4-4-4Zm2 19c0 1.1-.9 2-2 2H16c-.24 0-.48.09-.66.25L9 26.8V22c0-.55-.45-1-1-1H4c-1.1 0-2-.9-2-2V4c0-1.1.9-2 2-2h24c1.1 0 2 .9 2 2v15Z" fill="#EEA500"/><path d="M21 13h-9c-.55 0-1 .45-1 1s.45 1 1 1h9c.55 0 1-.45 1-1s-.45-1-1-1Zm0-5h-9c-.55 0-1 .45-1 1s.45 1 1 1h9c.55 0 1-.45 1-1s-.45-1-1-1Z" fill="#EEA500"/></svg>