<svg width="183" height="97" fill="none" xmlns="http://www.w3.org/2000/svg"><path d="M0 91.906c0-3.143 2.664-5.13 5.896-5.13 2.338 0 4.487 1.095 5.254 2.967l-1.307.504c-.692-1.346-2.149-2.2-3.935-2.2-2.363 0-4.401 1.447-4.401 3.886 0 2.703 2.402 3.798 4.55 3.798 2.149 0 3.771-1.13 3.986-2.742H6.26v-1.131h5.218v4.93h-1.131c-.024-.615-.039-1.257-.063-1.874h-.075C9.404 96.233 7.91 97 5.821 97 2.426 97 0 94.887 0 91.906Zm13.953-4.931h1.432v8.538h5.758v1.271h-7.19v-9.809Zm7.481 4.919c0-2.981 2.652-5.118 5.922-5.118 3.27 0 5.922 2.2 5.922 5.118S30.65 97 27.356 97c-3.294 0-5.922-2.113-5.922-5.106Zm5.934 3.835c2.39 0 4.374-1.623 4.374-3.835 0-2.212-1.975-3.847-4.374-3.847-2.4 0-4.413 1.609-4.413 3.847s2.038 3.835 4.413 3.835Zm8.12-8.754h4.425c2.39 0 3.709 1.158 3.709 2.552 0 .931-.642 1.91-2.05 2.238v.025c1.596.238 2.44 1.143 2.44 2.34 0 1.76-1.799 2.652-3.747 2.652h-4.777v-9.81.003Zm4.1 4.277c1.47 0 2.526-.517 2.526-1.496 0-1.03-1.193-1.534-2.601-1.534h-2.59v3.03h2.664Zm.3 4.288c1.472 0 2.603-.516 2.603-1.522s-1.209-1.585-2.653-1.585h-2.917v3.107h2.968Zm9.492-8.565h1.623l4.678 9.81h-1.522l-1.495-3.018H47.7a289.553 289.553 0 0 0-1.482 3.017h-1.51l4.678-9.809h-.005Zm2.664 5.494a112.822 112.822 0 0 1-1.834-3.885h-.039c-.415.88-1.157 2.414-1.861 3.885h3.734Zm5.269-5.494h1.432v8.538h5.758v1.271h-7.19v-9.809Zm11.49 4.931c0-3.143 2.664-5.13 5.895-5.13 2.34 0 4.488 1.095 5.255 2.966l-1.307.504c-.692-1.345-2.149-2.2-3.936-2.2-2.363 0-4.4 1.448-4.4 3.886 0 2.704 2.401 3.8 4.55 3.8 2.148 0 3.771-1.132 3.986-2.743h-3.784v-1.131h5.219v4.93H79.15c-.025-.615-.039-1.257-.063-1.874h-.075c-.805 1.319-2.3 2.086-4.388 2.086-3.395 0-5.821-2.113-5.821-5.094Zm13.955-4.931h4.249c1.697 0 3.935.68 3.935 3.03 0 1.772-1.295 2.754-2.93 2.954v.012c1.032 1.271 2.074 2.54 3.094 3.811h-1.609l-3.028-3.721h-2.276v3.721H82.76v-9.81l-.002.003Zm4.06 4.892c1.447 0 2.614-.529 2.614-1.824s-1.256-1.835-2.679-1.835h-2.565v3.659h2.63Zm5.582.027c0-2.981 2.653-5.118 5.922-5.118 3.27 0 5.923 2.2 5.923 5.118S101.616 97 98.322 97c-3.293 0-5.922-2.113-5.922-5.106Zm5.934 3.835c2.39 0 4.375-1.623 4.375-3.835 0-2.212-1.975-3.847-4.374-3.847-2.4 0-4.413 1.609-4.413 3.847s2.037 3.835 4.413 3.835Zm7.98-2.642v-6.112h1.447v6.01c0 1.785 1.006 2.755 2.867 2.755 1.862 0 2.867-.967 2.867-2.754v-6.011h1.447v6.112c0 1.898-1.044 3.91-4.338 3.91-3.067 0-4.287-1.824-4.287-3.91h-.003Zm11.454-6.112h4.248c1.772 0 3.935.68 3.935 3.005 0 2.325-2.237 3.119-3.759 3.119H119.2v3.685h-1.432v-9.809Zm4.06 4.829c1.447 0 2.614-.49 2.614-1.8s-1.256-1.785-2.679-1.785h-2.566v3.585h2.631Zm8.486 2.301 1.334-.442c.489 1.484 1.772 2.087 3.156 2.087 1.232 0 2.566-.478 2.566-1.573s-1.283-1.346-2.339-1.609l-1.095-.277c-1.107-.29-3.207-.919-3.207-2.779 0-1.76 1.886-2.742 3.897-2.742s3.47.955 3.947 2.313l-1.307.504c-.403-.955-1.369-1.585-2.727-1.585-1.358 0-2.312.567-2.312 1.41 0 1.068 1.608 1.482 2.363 1.685l1.169.314c1.244.328 3.156.767 3.156 2.59s-1.81 2.993-4.099 2.993c-1.924 0-3.846-.868-4.499-2.892l-.003.003Zm9.202-5.885v-1.245h9.177v1.245h-3.873v8.564h-1.432V88.22h-3.872Zm10.875-1.245h4.248c1.698 0 3.935.68 3.935 3.03 0 1.772-1.294 2.754-2.929 2.954v.012c1.029 1.271 2.073 2.54 3.093 3.811h-1.608l-3.031-3.721h-2.276v3.721h-1.432v-9.81.003Zm4.06 4.892c1.447 0 2.614-.529 2.614-1.824s-1.256-1.835-2.679-1.835h-2.565v3.659h2.63Zm5.582.027c0-2.981 2.653-5.118 5.922-5.118 3.27 0 5.922 2.2 5.922 5.118S169.249 97 165.955 97c-3.294 0-5.922-2.113-5.922-5.106Zm5.934 3.835c2.39 0 4.374-1.623 4.374-3.835 0-2.212-1.974-3.847-4.374-3.847-2.399 0-4.412 1.609-4.412 3.847s2.037 3.835 4.412 3.835Zm10.485-2.427c-1.37-2.012-3.458-5.157-4.3-6.327h1.546c1.157 1.66 2.3 3.333 3.458 4.993h.024c1.08-1.56.955-1.46 3.458-4.993h1.545c-1.447 2.1-2.867 4.214-4.311 6.312v3.495h-1.42v-3.483.002ZM56.496 50.952 74.75 69.211H56.496V50.952Zm0-40.921 59.163 59.18h-22.04L56.497 32.079V10.03Z" fill="#010101"/><path d="M91.088 25.757 65.336 0h51.504L91.088 25.757Z" fill="#EEA500"/><path d="M125.688 10.021v50.35l-25.167-25.176 25.167-25.174Z" fill="#979797"/></svg>