<svg width="31" height="32" fill="none" xmlns="http://www.w3.org/2000/svg"><path d="M26.218 4.08A13.843 13.843 0 0 0 16.368 0c-.61 0-1.1.49-1.1 1.1 0 .61.49 1.1 1.1 1.1 3.13 0 6.07 1.22 8.28 3.43a11.65 11.65 0 0 1 3.43 8.28c0 .61.49 1.1 1.1 1.1.61 0 1.1-.49 1.1-1.1 0-3.72-1.45-7.21-4.08-9.84l.02.01Z" fill="#EEA500"/><path d="M21.678 13.92c0 .61.49 1.1 1.1 1.1.61 0 1.1-.49 1.1-1.1 0-4.14-3.37-7.51-7.51-7.51-.61 0-1.1.49-1.1 1.1 0 .61.49 1.1 1.1 1.1 2.93 0 5.31 2.38 5.31 5.31Zm-2.44 5.63c-1.68-.09-2.54 1.16-2.95 1.76-.34.5-.22 1.19.29 1.53.5.34 1.19.22 1.53-.29.48-.71.7-.82 1-.81.95.11 4.71 2.87 5.09 3.73.09.25.09.5-.01.81-.39 1.17-1.05 1.99-1.89 2.38-.8.37-1.78.33-2.84-.1-3.94-1.6-7.38-3.85-10.23-6.66-2.81-2.85-5.04-6.28-6.65-10.22-.43-1.06-.46-2.04-.1-2.84.39-.84 1.21-1.5 2.38-1.89.3-.1.55-.11.8-.01.86.38 3.62 4.14 3.73 5.08.02.31-.1.53-.81 1.01-.5.34-.63 1.03-.29 1.53s1.03.63 1.53.29c.6-.41 1.85-1.26 1.76-2.95-.1-1.76-3.52-6.43-5.16-7.03-.73-.27-1.5-.28-2.28-.01-1.76.59-3.04 1.65-3.68 3.06-.63 1.37-.61 2.95.06 4.59 1.72 4.21 4.11 7.89 7.13 10.94l.02.02c3.05 3.01 6.73 5.41 10.93 7.12.84.34 1.67.51 2.46.51.75 0 1.46-.15 2.12-.46 1.41-.65 2.47-1.92 3.06-3.68.26-.78.26-1.55-.01-2.27-.6-1.64-5.27-5.07-7.04-5.17l.05.03Z" fill="#EEA500"/></svg>