<svg width="31" height="31" fill="none" xmlns="http://www.w3.org/2000/svg"><path d="M25.864 19.62a15.114 15.114 0 0 0-5.77-3.62c2.63-1.81 4.23-5.02 3.71-8.54-.56-3.87-3.74-6.95-7.64-7.4-5.29-.61-9.81 3.53-9.81 8.71 0 3 1.51 5.65 3.81 7.23-2.15.74-4.11 1.96-5.77 3.62a15.135 15.135 0 0 0-4.39 9.46c-.06.69.5 1.27 1.19 1.27.62 0 1.13-.47 1.18-1.09.55-6.55 6.06-11.72 12.76-11.72s12.21 5.17 12.76 11.72c.05.61.56 1.09 1.18 1.09.69 0 1.24-.59 1.19-1.27-.3-3.57-1.83-6.89-4.39-9.46h-.01Zm-10.73-4.44c-3.53 0-6.4-2.87-6.4-6.4 0-3.53 2.87-6.4 6.4-6.4 3.53 0 6.4 2.87 6.4 6.4 0 3.53-2.87 6.4-6.4 6.4Z" fill="#EEA500"/></svg>